<?xml version="1.0" encoding="UTF-8"?>
<svg version="1.1" xmlns="http://www.w3.org/2000/svg" width="1338" height="1338">
<path d="M0 0 C0.88039948 0.00054382 1.76079895 0.00108765 2.6678772 0.00164795 C16.97813999 0.04219383 30.67528173 0.96160525 44.625 4.375 C45.5212207 4.58930664 46.41744141 4.80361328 47.34082031 5.02441406 C72.65390044 11.24626953 96.99759111 22.3829639 117.625 38.375 C118.56472656 39.10332031 119.50445313 39.83164062 120.47265625 40.58203125 C161.31537038 73.19743606 187.15350412 118.92145333 193.85136032 170.89626884 C195.47811457 186.8264406 193.73367133 202.85627713 192.68834752 218.78045374 C191.25142679 240.99477561 190.49326025 263.24963971 189.875 285.5 C189.84090578 286.71644935 189.80681155 287.9328987 189.77168417 289.18621016 C186.06474579 369.53522729 186.06474579 369.53522729 222.30865562 437.94872308 C227.61758479 443.39830668 233.31567228 448.35773396 239.1875 453.1875 C239.70691225 453.61648999 240.2263245 454.04547998 240.76147652 454.48746967 C252.95201979 464.51115545 265.67600654 473.47571366 279.32887268 481.391922 C280.4165947 482.04633774 281.50431671 482.70075348 282.625 483.375 C282.625 483.705 282.625 484.035 282.625 484.375 C245.57967396 484.44384477 208.53435764 484.4966191 171.48898044 484.52819599 C167.10365613 484.53194758 162.71833194 484.53583059 158.33300781 484.53979492 C157.46006252 484.54058185 156.58711723 484.54136878 155.68771905 484.54217956 C141.6004187 484.55519135 127.51315553 484.57882158 113.42587715 484.60645839 C98.94352466 484.63463079 84.46119147 484.65120111 69.97881269 484.65726548 C61.06080782 484.66135754 52.14290806 484.6742251 43.22493559 484.6987494 C37.08831717 484.71475317 30.95175215 484.71936773 24.81511444 484.71550413 C21.28810531 484.71360502 17.76127826 484.71626603 14.23430252 484.73261642 C-44.82485554 484.96560183 -96.44690553 467.85832047 -139.0625 426 C-145.43964952 419.58448591 -151.06139105 412.68747127 -156.375 405.375 C-156.79346191 404.80088379 -157.21192383 404.22676758 -157.64306641 403.63525391 C-172.98337405 382.29768201 -183.60146645 358.13629214 -189.3125 332.5 C-189.59359619 331.23857178 -189.59359619 331.23857178 -189.88037109 329.95166016 C-193.58093913 311.73960359 -193.68735579 293.3992705 -193.67578125 274.89453125 C-193.67968061 272.26633132 -193.68401777 269.63813201 -193.68876648 267.00993347 C-193.69691739 261.5276832 -193.6961141 256.0454846 -193.69067383 250.56323242 C-193.68464861 244.29607083 -193.69693032 238.02913457 -193.7182439 231.76201135 C-193.73823747 225.65006489 -193.74100399 219.53822087 -193.73750877 213.42624474 C-193.73801534 210.86432047 -193.74312509 208.30239208 -193.75332069 205.74048805 C-193.95763183 147.23037405 -176.41527566 96.42868065 -135.3125 54.0625 C-130.60110133 49.50557342 -125.54113061 45.40249981 -120.375 41.375 C-119.53340332 40.71878662 -119.53340332 40.71878662 -118.67480469 40.04931641 C-109.39123641 32.87101031 -99.80035616 26.75848337 -89.375 21.375 C-88.70774902 21.02840332 -88.04049805 20.68180664 -87.35302734 20.32470703 C-70.37727282 11.6264203 -52.16020757 5.66826518 -33.375 2.375 C-32.39563477 2.19839844 -31.41626953 2.02179687 -30.40722656 1.83984375 C-20.26285476 0.18699295 -10.2586626 -0.0238885 0 0 Z " fill="#FEFFFF" transform="translate(624.375,-0.375)"/>
<path d="M0 0 C2.62105388 -0.00202913 5.2421072 -0.00494746 7.86315918 -0.00869751 C13.3155585 -0.01409771 18.76783443 -0.00711713 24.22021484 0.00732422 C30.45057113 0.02363956 36.68063248 0.01834691 42.91098166 0.001845 C48.99892544 -0.0136108 55.08674246 -0.01172009 61.17469788 -0.0030098 C63.72266178 -0.00103725 66.27063345 -0.00336071 68.81858826 -0.01044846 C127.27166803 -0.13744728 178.01726014 17.39666901 220.34375 58.4609375 C224.90067658 63.17233617 229.00375019 68.23230689 233.03125 73.3984375 C233.46872559 73.95950195 233.90620117 74.52056641 234.35693359 75.09863281 C241.53686134 84.38429834 247.63721466 93.97665946 253.03125 104.3984375 C253.3725293 105.04973633 253.71380859 105.70103516 254.06542969 106.37207031 C266.20053928 129.8177988 274.00436218 156.58048272 274.26953125 183.0859375 C274.2793251 183.89769943 274.28911896 184.70946136 274.29920959 185.54582214 C274.47114479 203.49865933 274.32406303 220.85474955 270.03125 238.3984375 C269.70979004 239.74276855 269.70979004 239.74276855 269.38183594 241.11425781 C259.89632187 279.70525028 237.68200538 318.64938005 206.03125 343.3984375 C205.48807129 343.82688965 204.94489258 344.2553418 204.38525391 344.69677734 C159.516119 379.88986746 110.75345643 390.16538117 54.68461245 386.46178216 C32.59678654 385.02384632 10.46787701 384.26671374 -11.65625 383.6484375 C-12.86599802 383.61434328 -14.07574604 383.58024905 -15.32215309 383.54512167 C-95.35777678 379.89016543 -95.35777678 379.89016543 -163.46911734 416.08209312 C-168.92032922 421.39238288 -173.88421537 427.09021878 -178.71875 432.9609375 C-179.14820529 433.48034975 -179.57766059 433.999762 -180.02012968 434.53491402 C-190.04951318 446.7193578 -199.04076168 459.45816509 -206.97894287 473.10231018 C-207.9638974 474.7338932 -207.9638974 474.7338932 -208.96875 476.3984375 C-209.29875 476.3984375 -209.62875 476.3984375 -209.96875 476.3984375 C-210.03760579 439.37013325 -210.09037463 402.34183873 -210.12194599 365.31348327 C-210.12569754 360.92944773 -210.12958057 356.54541231 -210.13354492 352.16137695 C-210.13433185 351.28869397 -210.13511878 350.41601099 -210.13592956 349.51688307 C-210.14893876 335.43672479 -210.17256752 321.35660374 -210.20020839 307.27646745 C-210.22838808 292.79976019 -210.24495263 278.32307225 -210.25101548 263.84633869 C-210.25510605 254.93294308 -210.26796529 246.01965272 -210.2924994 237.10628956 C-210.30851223 230.97153278 -210.31311575 224.83682941 -210.30925413 218.70205332 C-210.30735639 215.17694548 -210.30999955 211.65201985 -210.32636642 208.1269455 C-210.56013118 148.94815244 -193.55832717 97.434711 -151.59375 54.7109375 C-145.17823591 48.33378798 -138.28122127 42.71204645 -130.96875 37.3984375 C-130.39463379 36.97997559 -129.82051758 36.56151367 -129.22900391 36.13037109 C-90.55234823 8.32440517 -46.79234167 -0.13016406 0 0 Z " fill="#FEFFFF" transform="translate(1063.96875,430.6015625)"/>
<path d="M0 0 C37.02830425 -0.06885579 74.05659877 -0.12162463 111.08495423 -0.15319599 C115.46898977 -0.15694754 119.85302519 -0.16083057 124.23706055 -0.16479492 C125.54608502 -0.16597532 125.54608502 -0.16597532 126.88155443 -0.16717956 C140.96171271 -0.18018876 155.04183376 -0.20381752 169.12197005 -0.23145839 C183.59867731 -0.25963808 198.07536525 -0.27620263 212.55209881 -0.28226548 C221.46549442 -0.28635605 230.37878478 -0.29921529 239.29214794 -0.3237494 C245.42690472 -0.33976223 251.56160809 -0.34436575 257.69638418 -0.34050413 C261.22149202 -0.33860639 264.74641765 -0.34124955 268.271492 -0.35761642 C327.45028506 -0.59138118 378.9637265 16.41042283 421.6875 58.375 C428.06464952 64.79051409 433.68639105 71.68752873 439 79 C439.62769287 79.86117432 439.62769287 79.86117432 440.26806641 80.73974609 C455.60837405 102.07731799 466.22646645 126.23870786 471.9375 151.875 C472.12489746 152.71595215 472.31229492 153.5569043 472.50537109 154.42333984 C476.20593913 172.63539641 476.31235579 190.9757295 476.30078125 209.48046875 C476.30468061 212.10866868 476.30901777 214.73686799 476.31376648 217.36506653 C476.32191739 222.8473168 476.3211141 228.3295154 476.31567383 233.81176758 C476.30964861 240.07892917 476.32193032 246.34586543 476.3432439 252.61298865 C476.36323747 258.72493511 476.36600399 264.83677913 476.36250877 270.94875526 C476.36301534 273.51067953 476.36812509 276.07260792 476.37832069 278.63451195 C476.58263183 337.14462595 459.04027566 387.94631935 417.9375 430.3125 C413.22610133 434.86942658 408.16613061 438.97250019 403 443 C402.43893555 443.43747559 401.87787109 443.87495117 401.29980469 444.32568359 C392.01413916 451.50561134 382.42177804 457.60596466 372 463 C371.34870117 463.3412793 370.69740234 463.68255859 370.02636719 464.03417969 C346.58054179 476.16933944 319.8180238 483.97293 293.3125 484.23828125 C292.50087402 484.24812042 291.68924805 484.25795959 290.85302734 484.26809692 C272.91428255 484.4406671 255.51668675 484.35909083 238 480 C237.00129883 479.75330566 236.00259766 479.50661133 234.97363281 479.25244141 C221.38523129 475.79052303 208.54690961 471.25691802 196 465 C195.33145996 464.6685498 194.66291992 464.33709961 193.97412109 463.99560547 C171.33705518 452.64657928 148.72049567 436.10442474 133 416 C132.57154785 415.45682129 132.1430957 414.91364258 131.70166016 414.35400391 C114.13525941 391.95786869 100.96596681 367.04799603 93.75 339.4375 C93.51587402 338.57253906 93.28174805 337.70757813 93.04052734 336.81640625 C92.23735214 333.56455424 91.61533771 330.2910454 91 327 C90.85750509 326.28353994 90.71501019 325.56707989 90.56819725 324.82890892 C86.8200136 305.00369803 88.62588742 285.5642641 89.93663412 265.59447086 C91.37371256 243.38019004 92.13174066 221.12532739 92.75 198.875 C92.78409422 197.65855065 92.81818845 196.4421013 92.85331583 195.18878984 C96.56025421 114.83977271 96.56025421 114.83977271 60.31634438 46.42627692 C55.00741521 40.97669332 49.30932772 36.01726604 43.4375 31.1875 C42.91808775 30.75851001 42.3986755 30.32952002 41.86352348 29.88753033 C29.67298021 19.86384455 16.94899346 10.89928634 3.29612732 2.983078 C2.2084053 2.32866226 1.12068329 1.67424652 0 1 C0 0.67 0 0.34 0 0 Z " fill="#FEFFFF" transform="translate(431,854)"/>
<path d="M0 0 C0.33 0 0.66 0 1 0 C1.06884477 37.04532604 1.1216191 74.09064236 1.15319599 111.13601956 C1.15694758 115.52134387 1.16083059 119.90666806 1.16479492 124.29199219 C1.16558185 125.16493748 1.16636878 126.03788277 1.16717956 126.93728095 C1.18019135 141.0245813 1.20382158 155.11184447 1.23145839 169.19912285 C1.25963079 183.68147534 1.27620111 198.16380853 1.28226548 212.64618731 C1.28635754 221.56419218 1.2992251 230.48209194 1.3237494 239.40006441 C1.33975317 245.53668283 1.34436773 251.67324785 1.34050413 257.80988556 C1.33860502 261.33689469 1.34126603 264.86372174 1.35761642 268.39069748 C1.59060183 327.44985554 -15.51667953 379.07190553 -57.375 421.6875 C-63.79051409 428.06464952 -70.68752873 433.68639105 -78 439 C-78.57411621 439.41846191 -79.14823242 439.83692383 -79.73974609 440.26806641 C-101.07731799 455.60837405 -125.23870786 466.22646645 -150.875 471.9375 C-151.71595215 472.12489746 -152.5569043 472.31229492 -153.42333984 472.50537109 C-171.62798889 476.20443398 -189.94090742 476.29965706 -208.4375 476.265625 C-211.05525753 476.26697627 -213.67301481 476.26892062 -216.29077148 476.27142334 C-221.74692855 476.27503273 -227.20303097 476.27034449 -232.65917969 476.26074219 C-238.91162848 476.24986354 -245.16394669 476.25339128 -251.41639233 476.264395 C-257.50271986 476.27466583 -263.58899084 476.27345041 -269.67532349 476.26763153 C-272.2330019 476.26631128 -274.79068373 476.26788475 -277.34835815 476.27259064 C-295.64895391 476.29888481 -313.64484428 475.85477808 -331.5625 471.75 C-332.52518799 471.53311523 -333.48787598 471.31623047 -334.47973633 471.09277344 C-356.35378468 466.00216482 -377.23983757 457.40016326 -396 445 C-396.57911133 444.61763184 -397.15822266 444.23526367 -397.75488281 443.84130859 C-414.575074 432.58255667 -429.55751556 418.96014967 -442 403 C-442.43747559 402.43893555 -442.87495117 401.87787109 -443.32568359 401.29980469 C-450.50561134 392.01413916 -456.60596466 382.42177804 -462 372 C-462.3412793 371.34870117 -462.68255859 370.69740234 -463.03417969 370.02636719 C-475.16928928 346.5806387 -482.97311218 319.81795478 -483.23828125 293.3125 C-483.2480751 292.50073807 -483.25786896 291.68897614 -483.26795959 290.85261536 C-483.43989479 272.89977817 -483.29281303 255.54368795 -479 238 C-478.78569336 237.1037793 -478.57138672 236.20755859 -478.35058594 235.28417969 C-472.12873047 209.97109956 -460.9920361 185.62740889 -445 165 C-444.27167969 164.06027344 -443.54335938 163.12054687 -442.79296875 162.15234375 C-419.57919366 133.08284161 -390.18820863 111.41453155 -355 99 C-353.95102539 98.6275415 -353.95102539 98.6275415 -352.88085938 98.24755859 C-345.27264689 95.59571062 -337.55394216 93.54488867 -329.6875 91.8125 C-329.00228271 91.65749023 -328.31706543 91.50248047 -327.61108398 91.34277344 C-312.84257208 88.28066301 -298.34266511 87.7285354 -283.34814394 88.85582721 C-278.38273931 89.22511634 -273.41308779 89.52903961 -268.44386292 89.84188843 C-266.86382735 89.94301486 -266.86382735 89.94301486 -265.25187188 90.04618424 C-242.9410336 91.45296904 -220.59538889 92.21215172 -198.25 92.8125 C-197.02903389 92.84584143 -195.80806779 92.87918286 -194.55010271 92.91353464 C-114.0015121 96.61253765 -114.0015121 96.61253765 -45.40864193 60.31340522 C-39.96433282 55.00557667 -35.01201915 49.30768143 -30.1875 43.4375 C-29.75875643 42.91812882 -29.33001286 42.39875764 -28.88827705 41.86364794 C-18.86617819 29.67124936 -9.89959654 16.94947349 -1.983078 3.29612732 C-1.32866226 2.2084053 -0.67424652 1.12068329 0 0 Z " fill="#FEFFFF" transform="translate(483,431)"/>
<path d="M0 0 C13.53 0 27.06 0 41 0 C35.82482119 6.21021458 33.37829043 8.50229127 25.578125 9.22412109 C23.04167293 9.29353875 20.53647506 9.26287386 18 9.1875 C13.545 9.0946875 13.545 9.0946875 9 9 C9 16.59 9 24.18 9 32 C6.03 32 3.06 32 0 32 C0 21.44 0 10.88 0 0 Z " fill="#FDFFFF" transform="translate(1173,0)"/>
<path d="M0 0 C2.97 0 5.94 0 9 0 C9.33 7.59 9.66 15.18 10 23 C12.64 23.66 15.28 24.32 18 25 C18.04254356 26.99954746 18.04080783 29.00041636 18 31 C16.28310511 32.71689489 14.09121863 32.25303054 11.75 32.3125 C7.83524191 32.28707949 6.30281147 32.18168688 2.875 30.125 C-0.17127862 26.6725509 -0.11967192 24.6524149 -0.09765625 20.1171875 C-0.09443359 18.95058594 -0.09121094 17.78398437 -0.08789062 16.58203125 C-0.07951172 15.35871094 -0.07113281 14.13539062 -0.0625 12.875 C-0.05798828 11.64394531 -0.05347656 10.41289062 -0.04882812 9.14453125 C-0.0370133 6.09630608 -0.02054028 3.04817686 0 0 Z " fill="#FEFFFF" transform="translate(1294,0)"/>
<path d="M0 0 C2.64 0 5.28 0 8 0 C8.04898437 1.09699219 8.09796875 2.19398438 8.1484375 3.32421875 C8.22350591 4.77866925 8.29905197 6.23309516 8.375 7.6875 C8.4059375 8.40873047 8.436875 9.12996094 8.46875 9.87304688 C8.74050343 14.83254703 9.05759898 19.18709238 12.875 22.75 C14.95031911 23.97077595 16.64156127 24.57885023 19 25 C19 27.64 19 30.28 19 33 C13.30790036 33.47434164 8.52506091 32.72267898 4 29 C-0.54156925 22.99778546 -0.498724 17.91420748 -0.25 10.5625 C-0.23195313 9.54478516 -0.21390625 8.52707031 -0.1953125 7.47851562 C-0.14847997 4.98468345 -0.08291427 2.49284953 0 0 Z " fill="#FEFFFF" transform="translate(1319,0)"/>
<path d="M0 0 C2.97 0 5.94 0 9 0 C9 10.56 9 21.12 9 32 C6.03 32 3.06 32 0 32 C0 21.44 0 10.88 0 0 Z " fill="#FEFFFF" transform="translate(1243,0)"/>
<path d="M0 0 C2.97 0 5.94 0 9 0 C9 10.56 9 21.12 9 32 C6.03 32 3.06 32 0 32 C0 21.44 0 10.88 0 0 Z " fill="#FEFFFF" transform="translate(1225,0)"/>
<path d="M0 0 C2.97 0 5.94 0 9 0 C9 10.56 9 21.12 9 32 C6.36 32 3.72 32 1 32 C0.67 21.44 0.34 10.88 0 0 Z " fill="#FEFFFF" transform="translate(1273,0)"/>
</svg>
